<?xml version="1.0" encoding="UTF-8" standalone="no" ?>
<!DOCTYPE svg PUBLIC "-//W3C//DTD SVG 1.1//EN" "http://www.w3.org/Graphics/SVG/1.1/DTD/svg11.dtd">
<svg xmlns="http://www.w3.org/2000/svg" xmlns:xlink="http://www.w3.org/1999/xlink" version="1.1" width="1080" height="1080" viewBox="0 0 1080 1080" xml:space="preserve">
<desc>Created with Fabric.js 5.2.4</desc>
<defs>
</defs>
<g transform="matrix(1 0 0 1 540 540)" id="2a14a24b-25cc-428a-aa01-147da12bf06b"  >
</g>
<g transform="matrix(1 0 0 1 540 540)" id="332c2065-604d-40d9-841d-6e0f07be8416"  >
<rect style="stroke: none; stroke-width: 1; stroke-dasharray: none; stroke-linecap: butt; stroke-dashoffset: 0; stroke-linejoin: miter; stroke-miterlimit: 4; fill: rgb(255,255,255); fill-rule: nonzero; opacity: 1; visibility: hidden;" vector-effect="non-scaling-stroke"  x="-540" y="-540" rx="0" ry="0" width="1080" height="1080" />
</g>
<g transform="matrix(1 0 0 1 547.59 783.6)"  >
<path style="stroke: none; stroke-width: 0; stroke-dasharray: none; stroke-linecap: butt; stroke-dashoffset: 0; stroke-linejoin: miter; stroke-miterlimit: 4; fill: rgb(47,46,67); fill-rule: nonzero; opacity: 1;" vector-effect="non-scaling-stroke"  transform=" translate(-313, -488.38)" d="M 15.17983 488.38062 C 15.17983 489.04062000000005 15.70983 489.57062 16.36983 489.57062 L 609.62984 489.57062 C 610.28981 489.57062 610.81984 489.04062000000005 610.81984 488.38062 C 610.81984 487.72062 610.28981 487.19062 609.62984 487.19062 L 16.36983 487.19062 C 15.70983 487.19062 15.17983 487.72062 15.17983 488.38062 Z" stroke-linecap="round" />
</g>
<g transform="matrix(1 0 0 1 536.86 723.13)"  >
<path style="stroke: none; stroke-width: 0; stroke-dasharray: none; stroke-linecap: butt; stroke-dashoffset: 0; stroke-linejoin: miter; stroke-miterlimit: 4; fill: rgb(182,179,197); fill-rule: nonzero; opacity: 1;" vector-effect="non-scaling-stroke"  transform=" translate(-302.27, -427.91)" d="M 322.81828 370.94498 C 321.18932 380.81892 312.59699 388.3754 302.26901000000004 388.3754 C 291.94103000000007 388.3754 283.34871000000004 380.81892 281.71974000000006 370.94498 L 229.14627000000007 370.94498 L 229.14627000000007 484.88041999999996 L 375.39175000000006 484.88041999999996 L 375.39175000000006 370.94498 L 322.8182800000001 370.94498 Z" stroke-linecap="round" />
</g>
<g transform="matrix(1 0 0 1 473.52 780.94)"  >
<rect style="stroke: none; stroke-width: 0; stroke-dasharray: none; stroke-linecap: butt; stroke-dashoffset: 0; stroke-linejoin: miter; stroke-miterlimit: 4; fill: rgb(182,179,197); fill-rule: nonzero; opacity: 1;" vector-effect="non-scaling-stroke"  x="-7.225" y="-1.275" rx="0" ry="0" width="14.45" height="2.55" />
</g>
<g transform="matrix(1 0 0 1 601.48 781.38)"  >
<rect style="stroke: none; stroke-width: 0; stroke-dasharray: none; stroke-linecap: butt; stroke-dashoffset: 0; stroke-linejoin: miter; stroke-miterlimit: 4; fill: rgb(182,179,197); fill-rule: nonzero; opacity: 1;" vector-effect="non-scaling-stroke"  x="-7.225" y="-1.275" rx="0" ry="0" width="14.45" height="2.55" />
</g>
<g transform="matrix(1 0 0 1 537.29 773.06)"  >
<rect style="stroke: none; stroke-width: 0; stroke-dasharray: none; stroke-linecap: butt; stroke-dashoffset: 0; stroke-linejoin: miter; stroke-miterlimit: 4; fill: rgb(47,46,65); fill-rule: nonzero; opacity: 1;" vector-effect="non-scaling-stroke"  x="-73.125" y="-1.985" rx="0" ry="0" width="146.25" height="3.97" />
</g>
<g transform="matrix(1 0 0 1 540 495.11)"  >
<path style="stroke: none; stroke-width: 0; stroke-dasharray: none; stroke-linecap: butt; stroke-dashoffset: 0; stroke-linejoin: miter; stroke-miterlimit: 4; fill: rgb(47,46,65); fill-rule: nonzero; opacity: 1;" vector-effect="non-scaling-stroke"  transform=" translate(-302.27, -197.92)" d="M 596.38474 373.92091 L 8.15307 373.92091 C 3.6574199999999992 373.92091 0 370.26328 0 365.76784 L 0 30.0645 C 0 25.56906 3.65742 21.91143 8.15307 21.91143 L 596.38474 21.91143 C 600.8803899999999 21.91143 604.53802 25.56906 604.53802 30.0645 L 604.53802 365.76784000000004 C 604.53802 370.26328 600.8803899999999 373.92091000000005 596.38474 373.92091000000005 Z" stroke-linecap="round" />
</g>
<g transform="matrix(1 0 0 1 537.28 493.98)"  >
<rect style="stroke: none; stroke-width: 0; stroke-dasharray: none; stroke-linecap: butt; stroke-dashoffset: 0; stroke-linejoin: miter; stroke-miterlimit: 4; fill: rgb(255,255,255); fill-rule: nonzero; opacity: 1;" vector-effect="non-scaling-stroke"  x="-287.815" y="-162.4" rx="0" ry="0" width="575.63" height="324.8" />
</g>
<g transform="matrix(1 0 0 1 741 451.37)"  >
<path style="stroke: none; stroke-width: 0; stroke-dasharray: none; stroke-linecap: butt; stroke-dashoffset: 0; stroke-linejoin: miter; stroke-miterlimit: 4; fill: rgb(209,209,210); fill-rule: nonzero; opacity: 1;" vector-effect="non-scaling-stroke"  transform=" translate(-506.42, -156.15)" d="M 522.12121 161.10268 L 490.71179 161.10268 C 487.98254000000003 161.10268 485.76208 158.88246999999998 485.76208 156.15296999999998 C 485.76208 153.42346999999998 487.98254000000003 151.20325999999997 490.71179 151.20325999999997 L 522.12121 151.20325999999997 C 524.85046 151.20325999999997 527.07092 153.42346999999998 527.07092 156.15296999999998 C 527.07092 158.88246999999998 524.85046 161.10268 522.12121 161.10268 Z" stroke-linecap="round" />
</g>
<g transform="matrix(1 0 0 1 785.5 451.37)"  >
<path style="stroke: none; stroke-width: 0; stroke-dasharray: none; stroke-linecap: butt; stroke-dashoffset: 0; stroke-linejoin: miter; stroke-miterlimit: 4; fill: rgb(209,209,210); fill-rule: nonzero; opacity: 1;" vector-effect="non-scaling-stroke"  transform=" translate(-550.91, -156.15)" d="M 558.2423 161.10268 L 543.58459 161.10268 C 540.8553400000001 161.10268 538.6348800000001 158.88246999999998 538.6348800000001 156.15296999999998 C 538.6348800000001 153.42346999999998 540.8553400000001 151.20325999999997 543.58459 151.20325999999997 L 558.2423 151.20325999999997 C 560.97155 151.20325999999997 563.19201 153.42346999999998 563.19201 156.15296999999998 C 563.19201 158.88246999999998 560.97155 161.10268 558.2423 161.10268 Z" stroke-linecap="round" />
</g>
<g transform="matrix(0.56 0 0 0.56 676.57 450.67)"  >
<path style="stroke: none; stroke-width: 0; stroke-dasharray: none; stroke-linecap: butt; stroke-dashoffset: 0; stroke-linejoin: miter; stroke-miterlimit: 4; fill: rgb(234,165,32); fill-rule: nonzero; opacity: 1;" vector-effect="non-scaling-stroke"  transform=" translate(-159.84, -156.03)" d="M 207.6466 164.88296 L 112.04284000000001 164.88296 C 107.16247000000001 164.88296 103.19201000000001 160.91226 103.19201000000001 156.03189 C 103.19201000000001 151.15152 107.16247000000001 147.18082 112.04284000000001 147.18082 L 207.6466 147.18082 C 212.52722 147.18082 216.49767 151.15152 216.49767 156.03189 C 216.49767 160.91226 212.52721 164.88296 207.6466 164.88296 Z" stroke-linecap="round" />
</g>
<g transform="matrix(1 0 0 1 367.36 478.32)"  >
<path style="stroke: none; stroke-width: 0; stroke-dasharray: none; stroke-linecap: butt; stroke-dashoffset: 0; stroke-linejoin: miter; stroke-miterlimit: 4; fill: rgb(209,209,210); fill-rule: nonzero; opacity: 1;" vector-effect="non-scaling-stroke"  transform=" translate(-132.78, -183.1)" d="M 155.81335 188.49575 L 109.73913000000002 188.49575 C 106.76428000000001 188.49575 104.34387000000001 186.07533999999998 104.34387000000001 183.10073 C 104.34387000000001 180.12563 106.76428000000001 177.70522 109.73913000000002 177.70522 L 155.81335 177.70522 C 158.78820000000002 177.70522 161.20861000000002 180.12563 161.20861000000002 183.10073 C 161.20861000000002 186.07534 158.78820000000002 188.49575 155.81335 188.49575 Z" stroke-linecap="round" />
</g>
<g transform="matrix(1 0 0 1 493.78 499.63)"  >
<path style="stroke: none; stroke-width: 0; stroke-dasharray: none; stroke-linecap: butt; stroke-dashoffset: 0; stroke-linejoin: miter; stroke-miterlimit: 4; fill: rgb(209,209,210); fill-rule: nonzero; opacity: 1;" vector-effect="non-scaling-stroke"  transform=" translate(-259.19, -204.41)" d="M 409.79675 209.80532 L 108.58727 209.80532 C 105.61242 209.80532 103.19201000000001 207.38491 103.19201000000001 204.40981 C 103.19201000000001 201.43471 105.61242000000001 199.0143 108.58727000000002 199.0143 L 409.79674 199.0143 C 412.77159 199.0143 415.192 201.43471 415.192 204.40981 C 415.192 207.38491 412.77159 209.80532 409.79674 209.80532 Z" stroke-linecap="round" />
</g>
<g transform="matrix(1 0 0 1 480.82 514.03)"  >
<path style="stroke: none; stroke-width: 0; stroke-dasharray: none; stroke-linecap: butt; stroke-dashoffset: 0; stroke-linejoin: miter; stroke-miterlimit: 4; fill: rgb(209,209,210); fill-rule: nonzero; opacity: 1;" vector-effect="non-scaling-stroke"  transform=" translate(-246.23, -218.81)" d="M 383.88 224.20327 L 108.58727 224.20327 C 105.61242 224.20327 103.19201000000001 221.78286 103.19201000000001 218.80776 C 103.19201000000001 215.83315 105.61242000000001 213.41274 108.58727000000002 213.41274 L 383.87999 213.41274 C 386.85484 213.41274 389.27525 215.83315000000002 389.27525 218.80776 C 389.27525 221.78286 386.85484 224.20327 383.87999 224.20327 Z" stroke-linecap="round" />
</g>
<g transform="matrix(0.26 0 0 0.26 377.23 453.59)" style="" id="b042deca-4365-4aa3-ab62-8a5e1efc2b19"  >
		<text xml:space="preserve" font-family="Alegreya" font-size="80" font-style="normal" font-weight="700" style="stroke: none; stroke-width: 1; stroke-dasharray: none; stroke-linecap: butt; stroke-dashoffset: 0; stroke-linejoin: miter; stroke-miterlimit: 4; fill: rgb(0,0,0); fill-rule: nonzero; opacity: 1; white-space: pre;" ><tspan x="-153.84" y="25.13" >Welcome</tspan></text>
</g>
</svg>