<?xml version="1.0" encoding="UTF-8" standalone="no"?>
<!-- Created with Inkscape (http://www.inkscape.org/) -->

<svg
   width="143.48314mm"
   height="55.707523mm"
   viewBox="0 0 143.48314 55.707524"
   version="1.1"
   id="svg1"
   inkscape:version="1.4.3 (0d15f75, 2025-12-25)"
   sodipodi:docname="cornerborder.svg"
   xmlns:inkscape="http://www.inkscape.org/namespaces/inkscape"
   xmlns:sodipodi="http://sodipodi.sourceforge.net/DTD/sodipodi-0.dtd"
   xmlns="http://www.w3.org/2000/svg"
   xmlns:svg="http://www.w3.org/2000/svg">
  <sodipodi:namedview
     id="namedview1"
     pagecolor="#ffffff"
     bordercolor="#000000"
     borderopacity="0.25"
     inkscape:showpageshadow="2"
     inkscape:pageopacity="0.0"
     inkscape:pagecheckerboard="0"
     inkscape:deskcolor="#d1d1d1"
     inkscape:document-units="mm"
     inkscape:zoom="0.92630338"
     inkscape:cx="270.96954"
     inkscape:cy="105.79687"
     inkscape:window-width="1512"
     inkscape:window-height="921"
     inkscape:window-x="0"
     inkscape:window-y="61"
     inkscape:window-maximized="0"
     inkscape:current-layer="svg1" />
  <defs
     id="defs1" />
  <path
     id="path2-0"
     style="display:inline;fill:none;fill-rule:evenodd;stroke:#000000;stroke-width:1.00393;stroke-linecap:round"
     d="m 139.42274,19.007291 c 0.17163,-0.410065 0.64198,0.03186 0.68717,0.288731 0.12243,0.696112 -0.65496,1.129983 -1.25768,1.07438 -1.07819,-0.09949 -1.67525,-1.247657 -1.49099,-2.229309 0.27041,-1.440619 1.8354,-2.196435 3.20252,-1.860036 1.82217,0.448369 2.77157,2.438214 2.29482,4.169894 -0.59994,2.179141 -3.02714,3.285259 -5.14738,2.645683 -1.38986,-0.419259 -2.50775,-1.506717 -3.01619,-2.853918 M 4.2969571,26.674808 c 0.03529,0.443131 -0.585244,0.265786 -0.743094,0.05815 -0.427728,-0.562686 0.06453,-1.304484 0.62577,-1.531168 1.003967,-0.405494 2.060682,0.341583 2.346597,1.298589 0.419595,1.404433 -0.62527,2.793218 -1.994611,3.120484 -1.825113,0.436198 -3.580606,-0.897632 -3.950115,-2.655319 -0.464995,-2.211868 1.185796,-4.307015 3.363462,-4.7098 2.637441,-0.487828 5.111774,1.452819 5.553632,4.012052 0.03469,0.200672 0.05728,0.403377 0.06787,0.606695 m 0.0069,0.144868 c -3e-6,5.193671 3.7304849,4.770326 7.0208049,4.770325 2.022892,10e-7 13.087689,0.189392 14.091714,-3.34066 1.001147,-3.519975 -9.706734,-3.474269 -9.706731,0.139173 -2e-6,3.599891 6.837698,3.56409 14.26677,3.564088 3.192656,-2e-6 11.487505,-4.819856 14.858545,-3.990883 2.245124,0.552101 2.331065,3.503099 -0.0272,3.750224 -4.180497,0.438086 -7.822783,-5.05045 0.511246,-10.385163 7.997634,-5.119397 31.325693,-6.168153 16.782848,4.500561 -4.780047,3.506674 -2.441173,5.976707 3.503926,5.976706 8.003554,3e-6 16.399313,0.907499 22.144584,-3.906485 12.101885,-10.140221 22.354935,2.093108 11.952595,11.771543 -2.89717,2.695573 -16.416454,15.336772 -9.384337,15.33677 7.894747,0 4.140975,-16.247177 -2.296071,-23.170292 -2.605127,-2.80185 -8.880833,-6.793721 -8.904304,-15.613141 -0.0418,-15.69916242 37.783292,-27.718099 50.337722,3.900708"
     inkscape:label="corner slizzle" />
</svg>
