<?xml version="1.0" encoding="UTF-8" standalone="no"?>
<!-- Created with Inkscape (http://www.inkscape.org/) -->

<svg width="143.48573mm" height="55.704906mm" viewBox="0 0 143.48573 55.704907" version="1.1" id="svg1"
  xml:space="preserve" sodipodi:docname="cornerborder.svg" inkscape:version="1.4.3 (0d15f75, 2025-12-25)"
  xmlns:inkscape="http://www.inkscape.org/namespaces/inkscape"
  xmlns:sodipodi="http://sodipodi.sourceforge.net/DTD/sodipodi-0.dtd" xmlns:xlink="http://www.w3.org/1999/xlink"
  xmlns="http://www.w3.org/2000/svg" xmlns:svg="http://www.w3.org/2000/svg">
  <sodipodi:namedview id="namedview1" pagecolor="#ffffff" bordercolor="#ff0000" borderopacity="0.25"
    inkscape:showpageshadow="2" inkscape:pageopacity="0.0" inkscape:pagecheckerboard="0" inkscape:deskcolor="#d1d1d1"
    inkscape:document-units="mm" inkscape:zoom="0.30410718" inkscape:cx="-286.08335" inkscape:cy="335.40806"
    inkscape:window-width="1512" inkscape:window-height="921" inkscape:window-x="0" inkscape:window-y="61"
    inkscape:window-maximized="0" inkscape:current-layer="layer1" />
  <defs id="defs1" />
  <g inkscape:label="Layer 1" inkscape:groupmode="layer" id="layer1" transform="translate(-343.75575,-37.392039)"
    style="display:inline">
    <path id="path2-0" style="fill:none;fill-rule:evenodd;stroke:#000000;stroke-linecap:round"
      transform="matrix(-0.89636701,-0.46196128,0.45787106,-0.88843054,951.93592,388.16445)"
      d="m 563.92053,80.205482 c 0.035,0.443363 -0.58037,0.265922 -0.7369,0.05818 -0.42416,-0.562978 0.064,-1.305165 0.62055,-1.531971 0.9956,-0.405704 2.04351,0.341765 2.32704,1.299265 0.4161,1.40517 -0.62006,2.794679 -1.97798,3.122119 -1.8099,0.436426 -3.55076,-0.898101 -3.9172,-2.656707 -0.46112,-2.213027 1.17592,-4.309271 3.33543,-4.712267 1.41561,-0.264172 2.89504,0.190583 3.95524,1.155689 M 679.54869,11.451374 c -0.23242,-0.377927 0.39514,-0.504626 0.62861,-0.392314 0.63266,0.304381 0.53573,1.189736 0.14399,1.648582 -0.70077,0.820798 -1.97164,0.640723 -2.65843,-0.07935 -1.00789,-1.056726 -0.71777,-2.77077 0.34061,-3.6894645 1.41065,-1.224478 3.56404,-0.8428539 4.68826,0.5509984 1.41472,1.7540171 0.91138,4.3739981 -0.82522,5.7303521 -2.10325,1.642727 -5.16596,1.050903 -6.71809,-1.022651 -0.12174,-0.162571 -0.23374,-0.332494 -0.33544,-0.508464 m -0.0719,-0.125674 c -2.35944,-4.619045 -5.45549,-2.532669 -8.35586,-1.02455 -1.78315,0.927192 -11.62265,5.830307 -10.90401,9.429989 0.7166,3.589402 10.13468,-1.359206 8.49312,-4.572856 -1.6354,-3.201601 -7.64647,-0.0357 -14.19509,3.369418 -2.81428,1.463356 -7.93645,9.551888 -11.28457,10.359749 -2.22986,0.538036 -3.64623,-2.047073 -1.67972,-3.347767 3.48603,-2.305748 9.19005,0.906095 4.26724,9.47048 -4.7241,8.218704 -24.81101,19.843846 -16.83841,3.689801 2.62049,-5.309631 -0.56331,-6.434357 -5.80383,-3.709419 -7.05502,3.668428 -14.86803,6.709534 -17.74545,13.624246 -6.06102,14.56521 -20.65644,8.384862 -15.88376,-4.990667 1.32924,-3.725256 7.5035,-21.164399 1.30479,-17.941226 -6.95911,3.61856 3.73075,16.347609 12.55003,19.554331 3.56924,1.297793 10.91466,1.971533 14.94194,9.804416 7.16885,13.94305 -20.71332,41.969349 -46.14404,19.603167"
      inkscape:label="corner slizzle" />
  </g>
</svg>