<?xml version="1.0" encoding="UTF-8" standalone="no"?>
<!-- Created with Inkscape (http://www.inkscape.org/) -->

<svg
   width="132.89981mm"
   height="49.860859mm"
   viewBox="0 0 132.89981 49.86086"
   version="1.1"
   id="svg1"
   inkscape:version="1.4.3 (0d15f75, 2025-12-25)"
   sodipodi:docname="cornerborder.svg"
   xmlns:inkscape="http://www.inkscape.org/namespaces/inkscape"
   xmlns:sodipodi="http://sodipodi.sourceforge.net/DTD/sodipodi-0.dtd"
   xmlns="http://www.w3.org/2000/svg"
   xmlns:svg="http://www.w3.org/2000/svg">
  <sodipodi:namedview
     id="namedview1"
     pagecolor="#ffffff"
     bordercolor="#000000"
     borderopacity="0.25"
     inkscape:showpageshadow="2"
     inkscape:pageopacity="0.0"
     inkscape:pagecheckerboard="0"
     inkscape:deskcolor="#d1d1d1"
     inkscape:document-units="mm"
     inkscape:zoom="7.3279314"
     inkscape:cx="137.01002"
     inkscape:cy="114.2205"
     inkscape:window-width="1512"
     inkscape:window-height="921"
     inkscape:window-x="0"
     inkscape:window-y="61"
     inkscape:window-maximized="0"
     inkscape:current-layer="svg1" />
  <defs
     id="defs1" />
  <path
     id="path2-0"
     style="display:inline;fill:none;fill-rule:evenodd;stroke:#000000;stroke-width:1.00393;stroke-linecap:round"
     d="m 4.2969574,20.828145 c 0.035292,0.443131 -0.5852441,0.265786 -0.7430944,0.05815 -0.4277283,-0.562686 0.064535,-1.304484 0.6257701,-1.531168 1.003967,-0.405494 2.060682,0.341583 2.346597,1.298589 0.419595,1.404433 -0.62527,2.793218 -1.9946108,3.120484 -1.8251131,0.436198 -3.58060619,-0.897632 -3.95011529,-2.655319 -0.4649947,-2.211868 1.18579619,-4.307015 3.36346229,-4.7098 2.6374408,-0.487828 4.8163368,1.15738 5.5910188,4.387834 1.0373329,3.365006 3.7678709,5.146107 7.0581909,5.146106 2.022892,10e-7 13.087689,0.189392 14.091714,-3.34066 1.001147,-3.519975 -9.706734,-3.474269 -9.706731,0.139173 -2e-6,3.599891 6.837698,3.564091 14.26677,3.564088 5.575661,-2e-6 11.487505,-4.819856 14.858545,-3.990883 2.245124,0.552101 2.331065,3.503099 -0.0272,3.750224 -4.180497,0.438086 -7.822783,-5.05045 0.511246,-10.385163 7.997634,-5.119397 31.325693,-6.1681527 16.782848,4.500561 -4.780047,3.506674 -2.441173,5.976707 3.503926,5.976706 8.003554,3e-6 16.399313,0.907499 22.144584,-3.906485 12.101882,-10.140221 22.354932,2.093108 11.952592,11.771543 -2.89717,2.695573 -16.416451,15.336772 -9.384338,15.33677 7.894748,0 4.14098,-16.247177 -2.296067,-23.170292 -2.605127,-2.80185 -8.880833,-6.793721 -8.904304,-15.613141 -0.0418,-15.699162 32.437949,-12.0124725 39.873689,3.914052 2.32662,4.983369 7.41385,2.293913 8.0138,0.114773 0.47675,-1.731681 -0.47266,-3.721525 -2.29482,-4.169895 -1.36712,-0.336399 -2.93212,0.419418 -3.20253,1.860036 -0.18426,0.981652 0.41281,2.12982 1.49099,2.229309 0.60272,0.0556 1.38012,-0.378267 1.25769,-1.07438 -0.0452,-0.256875 -0.51555,-0.698796 -0.68718,-0.28873"
     inkscape:label="corner slizzle"
     sodipodi:nodetypes="csssssscssssssssssssssssssssc" />
</svg>
