<?xml version="1.0" encoding="UTF-8" standalone="no"?>
<!-- Created with Inkscape (http://www.inkscape.org/) -->

<svg
   width="117.12772mm"
   height="149.53333mm"
   viewBox="0 0 117.12772 149.53333"
   version="1.1"
   id="svg1"
   inkscape:version="1.4.3 (0d15f75, 2025-12-25)"
   sodipodi:docname="leftborder.svg"
   xmlns:inkscape="http://www.inkscape.org/namespaces/inkscape"
   xmlns:sodipodi="http://sodipodi.sourceforge.net/DTD/sodipodi-0.dtd"
   xmlns="http://www.w3.org/2000/svg"
   xmlns:svg="http://www.w3.org/2000/svg">
  <sodipodi:namedview
     id="namedview1"
     pagecolor="#ffffff"
     bordercolor="#000000"
     borderopacity="0.25"
     inkscape:showpageshadow="2"
     inkscape:pageopacity="0.0"
     inkscape:pagecheckerboard="0"
     inkscape:deskcolor="#d1d1d1"
     inkscape:document-units="mm"
     inkscape:zoom="1.1666052"
     inkscape:cx="-18.000949"
     inkscape:cy="370.30523"
     inkscape:window-width="1512"
     inkscape:window-height="921"
     inkscape:window-x="0"
     inkscape:window-y="61"
     inkscape:window-maximized="0"
     inkscape:current-layer="svg1" />
  <defs
     id="defs1" />
  <path
     style="display:inline;fill:none;stroke:#000000;stroke-width:1;stroke-linecap:round;stroke-dasharray:none;stroke-opacity:1"
     d="m 116.62168,13.754971 c 0,0 -54.186346,-0.420807 -76.258325,-6.4890813 C 25.999443,3.3167997 1.1158776,-6.4038943 0.50558359,9.8987667 -0.02480741,24.066998 37.854555,35.96028 37.71455,51.3398 c -0.0619,6.79975 -1.886376,14.68712 -7.362816,14.68712 -5.044551,0 -3.694452,-12.20507 1.34909,-12.20507 6.027009,0 6.170431,16.16035 5.243327,24.76598 C 36.15779,85.88705 8.2465313,86.63332 19.215319,99.11545 30.184106,111.59758 37.49918,93.867914 37.595902,86.722747 37.660133,81.977755 26.114486,77.69529 26.114486,81.25037 c 0,3.55508 11.223912,15.023557 11.223912,19.06899 0,8.48948 -0.815355,28.62519 -3.999893,32.34777 -2.58218,3.01845 -4.187098,6.02298 -11.345634,9.71088 -6.062721,3.12336 -4.546179,6.65531 -4.546179,6.65531"
     id="path5-3"
     sodipodi:nodetypes="csssssssszsssc"
     inkscape:label="path-5.2" />
  <path
     id="path6"
     style="fill:none;fill-rule:evenodd;stroke:#000000;stroke-linecap:round"
     d="m 116.62772,13.484274 c 0,0 -54.186316,-0.42081 -76.258296,-6.4890943 C 26.00551,3.0460937 1.1219476,-6.6746003 0.51165459,9.6280607 -0.01873641,23.7963 37.860623,35.68958 37.720618,51.0691 c -0.0619,6.79975 -1.886374,14.68711 -7.362815,14.68712 -5.044552,0 -3.694453,-12.20507 1.349091,-12.20508 6.027009,0 6.17043,16.16036 5.243327,24.76598 -0.786363,7.29923 -28.6976197,8.0455 -17.728833,20.52763 10.968787,12.48213 18.380582,-5.306695 18.380582,-12.392703 0,-4.239625 -11.481417,-9.027457 -11.481415,-5.472377 -1e-6,3.55508 11.223913,15.023547 11.223911,19.06899 0,8.48948 0.168182,28.53266 -3.999893,32.34777 -13.200918,12.08304 -21.814868,-7.13701 -23.077844,-12.76633 -0.3627793,-1.61697 -0.6090777,-3.64579 0.253234,-4.96506 1.107723,-1.69474 3.483329,-2.37925 5.203106,-1.17698 1.29031,0.90203 1.8062,2.78624 0.79171,4.08968 -0.691284,0.88816 -2.098322,1.24159 -2.976231,0.40644 -0.490782,-0.4669 -0.697801,-1.44646 -0.02118,-1.8628 0.24969,-0.15366 0.968414,-0.0868 0.74936,0.36407"
     sodipodi:nodetypes="csssssssssssssssssc" />
  <path
     id="path8"
     style="fill:none;fill-rule:evenodd;stroke:#000000;stroke-width:0.999999;stroke-linecap:round;stroke-opacity:1"
     d="m 116.62168,13.655095 c 0,0 -54.186346,-0.420807 -76.258325,-6.4890813 C 25.999443,3.2169237 1.1158776,-6.5037703 0.50558359,9.7988907 -0.02480741,23.967118 37.854555,35.86039 37.71455,51.23991 c -0.0619,6.79975 -1.886376,14.68712 -7.362816,14.68712 -5.044551,1e-5 -3.694452,-12.20507 1.34909,-12.20507 6.027009,0 6.170431,16.16035 5.243327,24.76599 -0.786361,7.29922 -28.6976197,8.04549 -17.728832,20.52761 10.968787,12.48214 18.380583,-5.023599 18.380583,-12.392693 0,-4.239626 -11.481416,-9.027457 -11.481416,-5.472377 0,3.55508 11.223912,15.023557 11.223912,19.06899 0,22.62673 -3.586358,21.98386 4.424231,24.95207 11.607356,4.30094 11.613346,8.07012 7.449509,6.65675 -8.214875,-2.78845 10.541636,-6.12567 10.541636,-6.12567 1.17991,-0.23618 2.16125,-0.76642 2.62927,-1.77833 0.60122,-1.29991 0.12107,-2.98155 -1.24494,-3.56234 -1.02488,-0.43575 -2.34854,-0.0387 -2.75,1.05855 -0.27355,0.74768 0.04202,1.7242 0.87216,1.93765 0.46408,0.11933 1.12931,-0.12378 1.12531,-0.68576 -0.0015,-0.20737 -0.31106,-0.61342 -0.49936,-0.31297"
     sodipodi:nodetypes="csssssssssssscsssssc" />
</svg>
