<?xml version="1.0" encoding="UTF-8" standalone="no"?>
<!-- Created with Inkscape (http://www.inkscape.org/) -->

<svg
   width="137.91011mm"
   height="43.003487mm"
   viewBox="0 0 137.91011 43.003487"
   version="1.1"
   id="svg1"
   inkscape:version="1.4.3 (0d15f75, 2025-12-25)"
   sodipodi:docname="technicalcreativewrapper.svg"
   xmlns:inkscape="http://www.inkscape.org/namespaces/inkscape"
   xmlns:sodipodi="http://sodipodi.sourceforge.net/DTD/sodipodi-0.dtd"
   xmlns="http://www.w3.org/2000/svg"
   xmlns:svg="http://www.w3.org/2000/svg">
  <sodipodi:namedview
     id="namedview1"
     pagecolor="#ffffff"
     bordercolor="#000000"
     borderopacity="0.25"
     inkscape:showpageshadow="2"
     inkscape:pageopacity="0.0"
     inkscape:pagecheckerboard="0"
     inkscape:deskcolor="#d1d1d1"
     inkscape:document-units="mm"
     inkscape:zoom="0.70408019"
     inkscape:cx="261.33387"
     inkscape:cy="80.956688"
     inkscape:window-width="1512"
     inkscape:window-height="921"
     inkscape:window-x="0"
     inkscape:window-y="61"
     inkscape:window-maximized="0"
     inkscape:current-layer="svg1" />
  <defs
     id="defs1" />
  <path
     id="path1-1"
     style="display:inline;fill:none;fill-rule:evenodd;stroke:#000000;stroke-linecap:round"
     d="m 114.59944,32.99661 c 0,0 -2.16257,-2.66027 3.07966,-2.66027 8.08224,0 16.76156,2.12941 17.82154,-1.3066 0.43964,-1.4251 3.70457,-14.57532 -0.37377,-16.83189 C 127.22582,7.82617 101.369,11.2508 74.8507,11.25081 c -1.23566,-10e-6 -5.58865,0.0602 -11.16458,-0.0778 0,0 -21.2052,-0.04 -32.26484,-0.04 C 15.2205,11.133 16.7705,26.60951 10.30268,35.05331 4.40669,42.75059 0.5,42.50373 0.5,42.50373"
     sodipodi:nodetypes="csssscssc"
     inkscape:label="path-L" />
  <path
     id="path1-5"
     style="display:inline;fill:none;fill-rule:evenodd;stroke:#000000;stroke-linecap:round"
     d="m 114.85538,33.16187 c 0,0 -2.16257,-2.66027 3.07966,-2.66027 8.08224,0 16.76156,2.12941 17.82154,-1.3066 0.43964,-1.4251 3.70457,-14.57532 -0.37377,-16.83189 -7.90105,-4.37168 -33.78499,-1.10952 -60.30329,-1.10974 -1.28989,-10e-6 -35.69662,0.0909 -41.35229,0.0909 -10.60933,0.002 -9.35564,13.49544 -8.44579,19.62489 0.65723,4.42764 2.72634,7.93135 4.83544,9.08103 3.54792,1.93401 6.9081,-0.32722 6.93263,-2.82702 0.0184,-1.87554 -1.45162,-3.67997 -3.41772,-3.5984 -1.33973,0.0556 -2.65632,1.17534 -2.45414,2.6047 0.11302,0.79908 0.91963,1.67782 1.79166,1.30988 0.32176,-0.13578 0.75444,-0.879 0.16563,-0.97865"
     sodipodi:nodetypes="csssscssssssc"
     inkscape:label="path-D" />
  <path
     id="path1-9"
     style="display:inline;fill:none;fill-rule:evenodd;stroke:#000000;stroke-linecap:round"
     d="m 114.7001,33.03165 c 0,0 -2.16257,-2.66027 3.07966,-2.66027 8.08224,0 16.76156,2.12941 17.82155,-1.3066 0.43963,-1.4251 3.70457,-14.57532 -0.37378,-16.83189 -7.90104,-4.37168 -33.75787,-0.94705 -60.27617,-0.94704 -1.23565,-10e-6 -5.58865,0.0602 -11.17062,-0.0857 C 53.93579,10.94883 35.59355,11.67663 30.94552,8.74328 23.69801,4.16943 24.9096,0.5 24.9096,0.5"
     sodipodi:nodetypes="csssscsc"
     inkscape:label="path-T" />
</svg>
