<?xml version="1.0" encoding="UTF-8" standalone="no"?>
<!-- Created with Inkscape (http://www.inkscape.org/) -->

<svg
   width="131.94728mm"
   height="44.689896mm"
   viewBox="0 0 131.94728 44.689896"
   version="1.1"
   id="svg1"
   inkscape:version="1.4.3 (0d15f75, 2025-12-25)"
   sodipodi:docname="technicalcreativewrapper.svg"
   xmlns:inkscape="http://www.inkscape.org/namespaces/inkscape"
   xmlns:sodipodi="http://sodipodi.sourceforge.net/DTD/sodipodi-0.dtd"
   xmlns="http://www.w3.org/2000/svg"
   xmlns:svg="http://www.w3.org/2000/svg">
  <sodipodi:namedview
     id="namedview1"
     pagecolor="#ffffff"
     bordercolor="#000000"
     borderopacity="0.25"
     inkscape:showpageshadow="2"
     inkscape:pageopacity="0.0"
     inkscape:pagecheckerboard="0"
     inkscape:deskcolor="#d1d1d1"
     inkscape:document-units="mm"
     inkscape:zoom="0.70408019"
     inkscape:cx="340.87026"
     inkscape:cy="335.18909"
     inkscape:window-width="1512"
     inkscape:window-height="921"
     inkscape:window-x="0"
     inkscape:window-y="61"
     inkscape:window-maximized="0"
     inkscape:current-layer="svg1" />
  <defs
     id="defs1" />
  <path
     id="path4"
     style="display:inline;fill:none;fill-rule:evenodd;stroke:#000000;stroke-linecap:round"
     d="m 31.041842,37.992776 c 0.588807,0.09965 0.156137,0.842874 -0.165623,0.978646 -0.87204,0.367947 -1.67863,-0.510801 -1.791668,-1.309873 -0.202181,-1.429363 1.114413,-2.549116 2.454142,-2.604701 1.9661,-0.08157 3.436119,1.722855 3.417723,3.598402 -0.02453,2.4998 -2.332581,4.329613 -4.742662,4.230745 -1.876126,-0.07696 -3.568718,-1.235941 -4.422659,-2.891669 M 68.81143,12.855311 c 0,0 -26.330506,-0.0359 -37.390144,-0.0359 C 15.220504,12.81941 16.770508,28.295915 10.302688,36.739718 4.4066943,44.437002 0.5,44.190138 0.5,44.190138 M 31.415456,12.778212 c -10.390656,-2e-6 -9.136964,13.493578 -8.227116,19.623026 0.657239,4.42764 2.645472,7.677305 2.645472,7.677305 m 83.058738,-5.483368 c 0,0 -2.16258,-2.660263 3.07965,-2.660267 8.08225,4e-6 16.76156,2.129415 17.82155,-1.306602 0.43963,-1.425096 3.70457,-14.575318 -0.37377,-16.831886 -7.90105,-4.3716843 -33.757874,-0.94705 -60.276176,-0.947044 -1.235654,-7e-6 -5.588645,0.0602 -10.998226,-0.07371 C 48.47301,12.536324 35.422436,11.676624 30.77441,8.7432787 23.526903,4.1694244 24.738488,0.5 24.738488,0.5"
     sodipodi:nodetypes="csssssccssccsccssssssc" />
</svg>
